<svg width="300" height="160" viewBox="0 0 300 160" fill="none" xmlns="http://www.w3.org/2000/svg">
<path d="M63.5536 78.6288C70.2963 75.02 86.6784 66.9952 110.041 57.6883C100.306 42.2559 83.0696 32.0468 63.4586 32.0468C43.8477 32.0468 26.6109 42.3034 16.8766 57.7358C20.8653 59.5402 24.949 61.3446 29.1276 63.2439C40.2389 68.2298 51.73 73.358 63.5536 78.6288Z" fill="#FBB800"/>
<path d="M290.243 15V21.5053C160.089 37.555 66.3552 88.5055 65.1206 89.2652C64.5508 89.5501 64.1709 89.6451 63.7911 89.6451C63.3162 89.6451 62.9364 89.4552 62.4615 89.2652C42.8506 80.4332 26.8009 73.2631 7.04749 64.4785V57.4034C24.2368 65.0958 43.6103 73.7854 63.6961 82.7599C74.8549 76.4445 167.876 29.91 290.243 15Z" fill="#C6D5C9"/>
<path d="M182.501 73.7854C174.619 73.7854 169.443 77.0143 166.784 80.908C164.505 76.6819 161.086 73.7854 152.634 73.7854C144.514 73.7854 139.718 76.8244 136.679 80.8131H136.537V74.9725C125.71 74.9725 117.733 80.7181 117.638 80.8131V117.708H137.154V95.0583C137.154 89.8351 139.718 87.8882 143.802 87.8882C147.221 87.8882 149.025 89.3127 149.025 93.5863V117.708H167.924V95.0583C167.924 89.8351 170.488 87.8882 174.572 87.8882C177.99 87.8882 179.795 89.3127 179.795 93.5863V117.708H199.311V88.2681C199.358 77.869 191.856 73.7854 182.501 73.7854Z" fill="#007143"/>
<path d="M204.867 65.9505V117.708H224.383V59.9675C213.841 59.9675 205.959 65.1908 204.867 65.9505Z" fill="#007143"/>
<path d="M231.743 87.9357C232.93 82.0951 235.351 78.4863 240.195 76.2071C244.943 74.0228 252.066 73.2631 262.37 73.2631C282.313 73.2631 290.196 77.7266 290.196 90.4524V111.06C290.196 114.337 291.05 116.284 292 117.708H272.009C271.629 116.474 271.392 115.049 271.297 113.482C266.928 117.566 260.281 119.418 249.882 119.418C236.776 119.418 228.466 115.904 228.466 104.983C228.466 97.1476 234.022 92.1618 248.457 91.5445L264.934 90.7847C268.828 90.5473 270.157 89.5976 270.157 87.2709C270.157 84.4694 266.643 83.1398 261.088 83.1398C256.624 83.1398 252.161 83.8521 251.259 87.9832H231.743V87.9357ZM270.632 98.2398C267.356 98.952 261.8 99.4269 254.867 100.044C251.259 100.377 249.549 101.516 249.549 104.27C249.549 107.262 251.971 109.114 256.814 109.114C263.367 109.114 270.632 107.452 270.632 100.139V98.2398Z" fill="#007143"/>
<path d="M12.9355 144.014L8.99434 133.188H8.89937C8.99434 134.803 9.04182 136.322 9.04182 137.699V144.014H7V131.051H10.134L13.9327 141.355H13.9802L17.8739 131.051H21.0078V144.014H18.871V137.604C18.871 136.939 18.871 136.132 18.9185 135.087C18.966 134.043 18.966 133.426 19.0135 133.188H18.9185L14.8349 144.014H12.9355Z" fill="#535255"/>
<path d="M32.6889 144.014H24.949V131.051H32.6889V132.856H27.1807V136.37H32.3565V138.126H27.1807V142.21H32.6889V144.014Z" fill="#535255"/>
<path d="M44.1801 144.015L42.8031 140.406H37.6273L36.2977 144.015H33.971L39.0518 130.956H41.426L46.5068 144.015H44.1801ZM42.2333 138.601L40.9512 135.087C40.8562 134.85 40.7138 134.47 40.5713 133.948C40.4289 133.426 40.2864 133.046 40.2389 132.808C40.049 133.521 39.8116 134.328 39.4792 135.182L38.2446 138.554H42.2333V138.601Z" fill="#535255"/>
<path d="M53.1546 144.014H50.9229V132.856H46.9342V131.051H57.1433V132.856H53.1546V144.014Z" fill="#535255"/>
<path d="M62.9363 140.596C62.9363 139.836 63.1263 139.124 63.5536 138.554C63.9335 137.984 64.6933 137.414 65.6904 136.844C65.1206 136.18 64.6933 135.61 64.5033 135.182C64.2659 134.708 64.1709 134.28 64.1709 133.758C64.1709 132.856 64.5033 132.143 65.1681 131.621C65.8329 131.099 66.7351 130.861 67.8747 130.861C68.9668 130.861 69.8215 131.099 70.4863 131.621C71.1036 132.143 71.436 132.808 71.436 133.663C71.436 134.328 71.2461 134.945 70.8187 135.515C70.3914 136.085 69.6791 136.607 68.7294 137.177L71.9583 140.121C72.4807 139.503 72.8605 138.554 73.2404 137.319H75.5196C75.0923 138.981 74.38 140.358 73.4303 141.45L76.2319 144.014H73.4303L72.0533 142.732C71.436 143.207 70.7237 143.587 70.0115 143.825C69.2992 144.062 68.492 144.204 67.6373 144.204C66.2127 144.204 65.0731 143.872 64.2659 143.255C63.3162 142.59 62.9363 141.688 62.9363 140.596ZM67.6373 142.4C68.7769 142.4 69.7266 142.068 70.5338 141.45L66.9725 138.126C66.3077 138.506 65.8804 138.886 65.5954 139.266C65.358 139.598 65.2156 140.026 65.2156 140.453C65.2156 141.023 65.453 141.498 65.8804 141.878C66.3077 142.21 66.8775 142.4 67.6373 142.4ZM66.2602 133.853C66.2602 134.233 66.3552 134.565 66.5926 134.898C66.7826 135.23 67.1149 135.562 67.4473 135.942C68.1596 135.562 68.6344 135.23 68.9193 134.898C69.2042 134.565 69.3467 134.185 69.3467 133.805C69.3467 133.426 69.2042 133.093 68.9668 132.903C68.6819 132.666 68.3495 132.571 67.8747 132.571C67.3998 132.571 66.9725 132.713 66.6876 132.951C66.4027 133.141 66.2602 133.425 66.2602 133.853Z" fill="#535255"/>
<path d="M82.5473 144.014V131.051H84.7791V142.21H90.5722V144.014H82.5473Z" fill="#535255"/>
<path d="M95.4155 131.051H93.1838V144.014H95.4155V131.051Z" fill="#535255"/>
<path d="M107.097 131.051H109.423L104.627 144.014H102.253L97.5048 131.051H99.7841L102.633 139.124C102.776 139.503 102.918 140.026 103.108 140.596C103.298 141.213 103.393 141.64 103.44 141.973C103.535 141.545 103.63 141.023 103.82 140.406C104.01 139.836 104.105 139.361 104.248 139.076L107.097 131.051Z" fill="#535255"/>
<path d="M119.205 144.014H111.465V131.051H119.205V132.856H113.697V136.37H118.825V138.126H113.697V142.21H119.205V144.014Z" fill="#535255"/>
<path d="M130.269 140.501C130.269 141.64 129.842 142.542 128.939 143.207C128.085 143.872 126.85 144.204 125.331 144.204C123.811 144.204 122.529 143.967 121.532 143.54V141.545C122.149 141.83 122.814 142.02 123.526 142.21C124.238 142.4 124.856 142.447 125.473 142.447C126.375 142.447 126.993 142.305 127.42 141.973C127.847 141.64 128.037 141.213 128.037 140.691C128.037 140.216 127.847 139.788 127.467 139.456C127.087 139.124 126.28 138.696 125.093 138.269C123.859 137.794 122.956 137.224 122.482 136.607C121.959 135.99 121.722 135.23 121.722 134.375C121.722 133.283 122.102 132.428 122.956 131.811C123.764 131.194 124.856 130.861 126.233 130.861C127.515 130.861 128.844 131.146 130.126 131.669L129.414 133.378C128.18 132.903 127.135 132.666 126.185 132.666C125.473 132.666 124.903 132.808 124.523 133.093C124.143 133.378 123.954 133.805 123.954 134.28C123.954 134.613 124.048 134.898 124.191 135.135C124.333 135.372 124.571 135.61 124.951 135.8C125.283 136.037 125.9 136.275 126.803 136.654C127.8 137.034 128.559 137.414 128.987 137.747C129.462 138.079 129.794 138.459 130.031 138.886C130.174 139.409 130.269 139.931 130.269 140.501Z" fill="#535255"/>
<path d="M137.914 144.014H135.682V132.856H131.693V131.051H141.95V132.856H137.914V144.014Z" fill="#535255"/>
<path d="M156.195 137.509C156.195 139.598 155.625 141.26 154.533 142.447C153.441 143.635 151.874 144.204 149.832 144.204C147.791 144.204 146.176 143.635 145.084 142.447C143.992 141.26 143.422 139.646 143.422 137.509C143.422 135.372 143.992 133.71 145.084 132.571C146.176 131.431 147.791 130.861 149.832 130.861C151.874 130.861 153.441 131.431 154.533 132.618C155.673 133.758 156.195 135.42 156.195 137.509ZM145.796 137.509C145.796 139.124 146.129 140.311 146.793 141.165C147.458 141.973 148.455 142.4 149.785 142.4C151.114 142.4 152.112 141.973 152.776 141.165C153.441 140.358 153.774 139.124 153.774 137.509C153.774 135.895 153.441 134.708 152.776 133.9C152.112 133.093 151.114 132.666 149.785 132.666C148.455 132.666 147.458 133.093 146.746 133.9C146.129 134.708 145.796 135.942 145.796 137.509Z" fill="#535255"/>
<path d="M165.217 132.666C163.935 132.666 162.938 133.093 162.178 133.948C161.419 134.803 161.086 135.99 161.086 137.509C161.086 139.124 161.419 140.311 162.131 141.118C162.843 141.925 163.84 142.353 165.217 142.353C165.787 142.353 166.357 142.305 166.879 142.21C167.402 142.115 167.971 141.973 168.589 141.783V143.587C167.496 143.967 166.309 144.157 164.932 144.157C162.938 144.157 161.419 143.587 160.326 142.448C159.234 141.308 158.712 139.646 158.712 137.509C158.712 136.18 158.949 134.993 159.472 133.948C159.994 132.951 160.754 132.143 161.703 131.621C162.701 131.099 163.84 130.814 165.17 130.814C166.547 130.814 167.829 131.099 169.016 131.669L168.209 133.426C167.734 133.236 167.259 133.046 166.737 132.903C166.357 132.761 165.787 132.666 165.217 132.666Z" fill="#535255"/>
<path d="M182.217 144.014H179.652L175.379 138.126L174.049 139.171V144.014H171.818V131.051H174.049V137.272C174.667 136.559 175.284 135.895 175.854 135.23L179.557 131.099H182.074C179.7 133.758 177.99 135.657 176.946 136.797L182.217 144.014Z" fill="#535255"/>
<path d="M197.649 144.015L196.272 140.406H191.049L189.719 144.015H187.392L192.473 130.956H194.895L199.976 144.015H197.649ZM195.702 138.601L194.42 135.087C194.325 134.85 194.183 134.47 194.04 133.948C193.898 133.426 193.755 133.046 193.708 132.808C193.518 133.521 193.28 134.328 192.948 135.182L191.713 138.554H195.702V138.601Z" fill="#535255"/>
<path d="M212.512 131.051V139.456C212.512 140.406 212.274 141.26 211.847 141.973C211.419 142.685 210.802 143.255 209.995 143.635C209.188 144.014 208.19 144.204 207.051 144.204C205.341 144.204 204.059 143.777 203.11 142.922C202.16 142.068 201.685 140.881 201.685 139.409V131.051H203.917V139.266C203.917 140.358 204.202 141.118 204.724 141.64C205.246 142.163 206.054 142.4 207.146 142.4C209.235 142.4 210.28 141.355 210.28 139.266V131.051H212.512Z" fill="#535255"/>
<path d="M224.145 140.501C224.145 141.64 223.718 142.542 222.816 143.207C221.961 143.872 220.726 144.204 219.207 144.204C217.687 144.204 216.405 143.967 215.408 143.54V141.545C216.025 141.83 216.69 142.02 217.402 142.21C218.115 142.353 218.732 142.447 219.349 142.447C220.251 142.447 220.869 142.305 221.296 141.973C221.723 141.64 221.913 141.213 221.913 140.691C221.913 140.216 221.723 139.788 221.344 139.456C220.964 139.124 220.156 138.696 218.969 138.269C217.735 137.794 216.833 137.224 216.358 136.607C215.835 135.99 215.598 135.23 215.598 134.375C215.598 133.283 215.978 132.428 216.833 131.811C217.64 131.194 218.732 130.861 220.109 130.861C221.391 130.861 222.721 131.146 224.003 131.669L223.29 133.378C222.056 132.903 221.011 132.666 220.061 132.666C219.349 132.666 218.779 132.808 218.4 133.093C218.02 133.378 217.83 133.805 217.83 134.28C217.83 134.613 217.925 134.898 218.067 135.135C218.21 135.372 218.447 135.61 218.827 135.8C219.159 136.037 219.777 136.275 220.679 136.654C221.676 137.034 222.436 137.414 222.863 137.747C223.338 138.079 223.67 138.459 223.908 138.886C224.003 139.409 224.145 139.931 224.145 140.501Z" fill="#535255"/>
<path d="M231.79 144.014H229.558V132.856H225.522V131.051H235.779V132.856H231.79V144.014Z" fill="#535255"/>
<path d="M240.385 138.839V144.014H238.153V131.051H241.999C243.756 131.051 245.038 131.384 245.893 132.001C246.748 132.618 247.175 133.568 247.175 134.85C247.175 136.464 246.273 137.604 244.516 138.316L248.362 144.062H245.845L242.569 138.886H240.385V138.839ZM240.385 137.082H241.952C242.996 137.082 243.756 136.892 244.183 136.512C244.658 136.132 244.896 135.61 244.896 134.898C244.896 134.185 244.658 133.615 244.136 133.331C243.614 132.998 242.854 132.856 241.857 132.856H240.385V137.082Z" fill="#535255"/>
<path d="M258.524 144.015L257.147 140.406H251.923L250.594 144.015H248.267L253.348 130.956H255.77L260.85 144.015H258.524ZM256.577 138.601L255.295 135.087C255.2 134.85 255.057 134.47 254.915 133.948C254.772 133.426 254.63 133.046 254.583 132.808C254.393 133.521 254.155 134.328 253.823 135.182L252.588 138.554H256.577V138.601Z" fill="#535255"/>
<path d="M262.987 144.014V131.051H265.219V142.21H270.964V144.014H262.987Z" fill="#535255"/>
<path d="M275.855 131.051H273.624V144.014H275.855V131.051Z" fill="#535255"/>
<path d="M288.201 144.015L286.824 140.406H281.601L280.271 144.015H277.945L283.025 130.956H285.447L290.528 144.015H288.201ZM286.254 138.601L284.972 135.087C284.877 134.85 284.735 134.47 284.592 133.948C284.45 133.426 284.308 133.046 284.26 132.808C284.07 133.521 283.833 134.328 283.5 135.182L282.266 138.554H286.254V138.601Z" fill="#535255"/>
</svg>
